<mxfile host="app.diagrams.net" modified="2024-03-10T12:34:33.755Z" agent="Mozilla/5.0 (Windows NT 10.0; Win64; x64) AppleWebKit/537.36 (KHTML, like Gecko) Chrome/122.0.0.0 Safari/537.36" etag="TW4GCrjqSK2oeO6wZgz2" version="24.0.4" type="device">
  <diagram id="C5RBs43oDa-KdzZeNtuy" name="Page-1">
    <mxGraphModel dx="1035" dy="551" grid="1" gridSize="10" guides="1" tooltips="1" connect="1" arrows="1" fold="1" page="1" pageScale="1" pageWidth="827" pageHeight="1169" math="0" shadow="0">
      <root>
        <mxCell id="WIyWlLk6GJQsqaUBKTNV-0" />
        <mxCell id="WIyWlLk6GJQsqaUBKTNV-1" parent="WIyWlLk6GJQsqaUBKTNV-0" />
        <mxCell id="80YeI6Sgnyl6P5MWpeau-2" style="edgeStyle=none;curved=1;rounded=0;orthogonalLoop=1;jettySize=auto;html=1;fontSize=12;startSize=8;endSize=8;" edge="1" parent="WIyWlLk6GJQsqaUBKTNV-1" source="80YeI6Sgnyl6P5MWpeau-1" target="80YeI6Sgnyl6P5MWpeau-3">
          <mxGeometry relative="1" as="geometry">
            <mxPoint x="220" y="160" as="targetPoint" />
          </mxGeometry>
        </mxCell>
        <mxCell id="80YeI6Sgnyl6P5MWpeau-1" value="start" style="ellipse;whiteSpace=wrap;html=1;" vertex="1" parent="WIyWlLk6GJQsqaUBKTNV-1">
          <mxGeometry x="160" y="20" width="120" height="80" as="geometry" />
        </mxCell>
        <mxCell id="80YeI6Sgnyl6P5MWpeau-5" value="" style="edgeStyle=none;curved=1;rounded=0;orthogonalLoop=1;jettySize=auto;html=1;fontSize=12;startSize=8;endSize=8;" edge="1" parent="WIyWlLk6GJQsqaUBKTNV-1" source="80YeI6Sgnyl6P5MWpeau-3" target="80YeI6Sgnyl6P5MWpeau-4">
          <mxGeometry relative="1" as="geometry" />
        </mxCell>
        <mxCell id="80YeI6Sgnyl6P5MWpeau-3" value="int hasil = 1;&lt;div&gt;int n = 1237;&lt;/div&gt;&lt;div&gt;int qaliq = 0;&lt;/div&gt;" style="rounded=0;whiteSpace=wrap;html=1;" vertex="1" parent="WIyWlLk6GJQsqaUBKTNV-1">
          <mxGeometry x="160" y="160" width="120" height="60" as="geometry" />
        </mxCell>
        <mxCell id="80YeI6Sgnyl6P5MWpeau-6" style="edgeStyle=none;curved=1;rounded=0;orthogonalLoop=1;jettySize=auto;html=1;fontSize=12;startSize=8;endSize=8;" edge="1" parent="WIyWlLk6GJQsqaUBKTNV-1" source="80YeI6Sgnyl6P5MWpeau-4">
          <mxGeometry relative="1" as="geometry">
            <mxPoint x="220" y="490" as="targetPoint" />
          </mxGeometry>
        </mxCell>
        <mxCell id="80YeI6Sgnyl6P5MWpeau-12" value="true" style="edgeLabel;html=1;align=center;verticalAlign=middle;resizable=0;points=[];fontSize=12;" vertex="1" connectable="0" parent="80YeI6Sgnyl6P5MWpeau-6">
          <mxGeometry x="-0.1556" y="4" relative="1" as="geometry">
            <mxPoint as="offset" />
          </mxGeometry>
        </mxCell>
        <mxCell id="80YeI6Sgnyl6P5MWpeau-7" style="edgeStyle=none;curved=1;rounded=0;orthogonalLoop=1;jettySize=auto;html=1;fontSize=12;startSize=8;endSize=8;" edge="1" parent="WIyWlLk6GJQsqaUBKTNV-1" source="80YeI6Sgnyl6P5MWpeau-4">
          <mxGeometry relative="1" as="geometry">
            <mxPoint x="370" y="345" as="targetPoint" />
          </mxGeometry>
        </mxCell>
        <mxCell id="80YeI6Sgnyl6P5MWpeau-8" value="false" style="edgeLabel;html=1;align=center;verticalAlign=middle;resizable=0;points=[];fontSize=12;" vertex="1" connectable="0" parent="80YeI6Sgnyl6P5MWpeau-7">
          <mxGeometry x="-0.0526" y="2" relative="1" as="geometry">
            <mxPoint as="offset" />
          </mxGeometry>
        </mxCell>
        <mxCell id="80YeI6Sgnyl6P5MWpeau-4" value="while(n!=0)" style="rhombus;whiteSpace=wrap;html=1;" vertex="1" parent="WIyWlLk6GJQsqaUBKTNV-1">
          <mxGeometry x="165" y="290" width="110" height="110" as="geometry" />
        </mxCell>
        <mxCell id="80YeI6Sgnyl6P5MWpeau-11" value="" style="edgeStyle=none;curved=1;rounded=0;orthogonalLoop=1;jettySize=auto;html=1;fontSize=12;startSize=8;endSize=8;" edge="1" parent="WIyWlLk6GJQsqaUBKTNV-1" source="80YeI6Sgnyl6P5MWpeau-9" target="80YeI6Sgnyl6P5MWpeau-10">
          <mxGeometry relative="1" as="geometry" />
        </mxCell>
        <mxCell id="80YeI6Sgnyl6P5MWpeau-9" value="hasil" style="shape=document;whiteSpace=wrap;html=1;boundedLbl=1;" vertex="1" parent="WIyWlLk6GJQsqaUBKTNV-1">
          <mxGeometry x="370" y="310" width="120" height="80" as="geometry" />
        </mxCell>
        <mxCell id="80YeI6Sgnyl6P5MWpeau-10" value="end" style="ellipse;whiteSpace=wrap;html=1;" vertex="1" parent="WIyWlLk6GJQsqaUBKTNV-1">
          <mxGeometry x="370" y="440" width="120" height="80" as="geometry" />
        </mxCell>
        <mxCell id="80YeI6Sgnyl6P5MWpeau-16" style="edgeStyle=none;curved=1;rounded=0;orthogonalLoop=1;jettySize=auto;html=1;fontSize=12;startSize=8;endSize=8;" edge="1" parent="WIyWlLk6GJQsqaUBKTNV-1">
          <mxGeometry relative="1" as="geometry">
            <mxPoint x="160" y="350" as="targetPoint" />
            <mxPoint x="160" y="520" as="sourcePoint" />
            <Array as="points">
              <mxPoint x="70" y="430" />
            </Array>
          </mxGeometry>
        </mxCell>
        <mxCell id="80YeI6Sgnyl6P5MWpeau-13" value="&lt;div&gt;qaliq = n % 10;&lt;/div&gt;&lt;div&gt;hasil *= qaliq;&lt;/div&gt;&lt;div&gt;n = n / 10;&lt;/div&gt;" style="rounded=0;whiteSpace=wrap;html=1;" vertex="1" parent="WIyWlLk6GJQsqaUBKTNV-1">
          <mxGeometry x="165" y="490" width="120" height="60" as="geometry" />
        </mxCell>
        <mxCell id="80YeI6Sgnyl6P5MWpeau-19" value="" style="edgeStyle=none;curved=1;rounded=0;orthogonalLoop=1;jettySize=auto;html=1;fontSize=12;startSize=8;endSize=8;" edge="1" parent="WIyWlLk6GJQsqaUBKTNV-1" source="80YeI6Sgnyl6P5MWpeau-17" target="80YeI6Sgnyl6P5MWpeau-18">
          <mxGeometry relative="1" as="geometry" />
        </mxCell>
        <mxCell id="80YeI6Sgnyl6P5MWpeau-17" value="start" style="ellipse;whiteSpace=wrap;html=1;" vertex="1" parent="WIyWlLk6GJQsqaUBKTNV-1">
          <mxGeometry x="780" y="20" width="120" height="80" as="geometry" />
        </mxCell>
        <mxCell id="80YeI6Sgnyl6P5MWpeau-21" value="" style="edgeStyle=none;curved=1;rounded=0;orthogonalLoop=1;jettySize=auto;html=1;fontSize=12;startSize=8;endSize=8;" edge="1" parent="WIyWlLk6GJQsqaUBKTNV-1" source="80YeI6Sgnyl6P5MWpeau-18" target="80YeI6Sgnyl6P5MWpeau-20">
          <mxGeometry relative="1" as="geometry" />
        </mxCell>
        <mxCell id="80YeI6Sgnyl6P5MWpeau-18" value="int n= 5;&lt;div&gt;int control = 0;&lt;/div&gt;" style="rounded=0;whiteSpace=wrap;html=1;" vertex="1" parent="WIyWlLk6GJQsqaUBKTNV-1">
          <mxGeometry x="780" y="160" width="120" height="60" as="geometry" />
        </mxCell>
        <mxCell id="80YeI6Sgnyl6P5MWpeau-22" style="edgeStyle=none;curved=1;rounded=0;orthogonalLoop=1;jettySize=auto;html=1;fontSize=12;startSize=8;endSize=8;" edge="1" parent="WIyWlLk6GJQsqaUBKTNV-1" source="80YeI6Sgnyl6P5MWpeau-20">
          <mxGeometry relative="1" as="geometry">
            <mxPoint x="840" y="440" as="targetPoint" />
          </mxGeometry>
        </mxCell>
        <mxCell id="80YeI6Sgnyl6P5MWpeau-24" value="true" style="edgeLabel;html=1;align=center;verticalAlign=middle;resizable=0;points=[];fontSize=12;" vertex="1" connectable="0" parent="80YeI6Sgnyl6P5MWpeau-22">
          <mxGeometry x="-0.2118" y="1" relative="1" as="geometry">
            <mxPoint as="offset" />
          </mxGeometry>
        </mxCell>
        <mxCell id="80YeI6Sgnyl6P5MWpeau-85" value="false" style="edgeLabel;html=1;align=center;verticalAlign=middle;resizable=0;points=[];fontSize=12;" vertex="1" connectable="0" parent="80YeI6Sgnyl6P5MWpeau-22">
          <mxGeometry x="-0.1956" y="1" relative="1" as="geometry">
            <mxPoint as="offset" />
          </mxGeometry>
        </mxCell>
        <mxCell id="80YeI6Sgnyl6P5MWpeau-23" style="edgeStyle=none;curved=1;rounded=0;orthogonalLoop=1;jettySize=auto;html=1;fontSize=12;startSize=8;endSize=8;" edge="1" parent="WIyWlLk6GJQsqaUBKTNV-1" source="80YeI6Sgnyl6P5MWpeau-20">
          <mxGeometry relative="1" as="geometry">
            <mxPoint x="1000" y="315" as="targetPoint" />
          </mxGeometry>
        </mxCell>
        <mxCell id="80YeI6Sgnyl6P5MWpeau-84" value="true" style="edgeLabel;html=1;align=center;verticalAlign=middle;resizable=0;points=[];fontSize=12;" vertex="1" connectable="0" parent="80YeI6Sgnyl6P5MWpeau-23">
          <mxGeometry x="-0.0915" y="-5" relative="1" as="geometry">
            <mxPoint as="offset" />
          </mxGeometry>
        </mxCell>
        <mxCell id="80YeI6Sgnyl6P5MWpeau-20" value="for (int i = 2; i &amp;lt; n; i++)" style="shape=hexagon;perimeter=hexagonPerimeter2;whiteSpace=wrap;html=1;fixedSize=1;" vertex="1" parent="WIyWlLk6GJQsqaUBKTNV-1">
          <mxGeometry x="770" y="270" width="140" height="90" as="geometry" />
        </mxCell>
        <mxCell id="80YeI6Sgnyl6P5MWpeau-27" value="" style="edgeStyle=none;curved=1;rounded=0;orthogonalLoop=1;jettySize=auto;html=1;fontSize=12;startSize=8;endSize=8;" edge="1" parent="WIyWlLk6GJQsqaUBKTNV-1" source="80YeI6Sgnyl6P5MWpeau-25" target="80YeI6Sgnyl6P5MWpeau-26">
          <mxGeometry relative="1" as="geometry" />
        </mxCell>
        <mxCell id="80YeI6Sgnyl6P5MWpeau-68" value="false" style="edgeLabel;html=1;align=center;verticalAlign=middle;resizable=0;points=[];fontSize=12;" vertex="1" connectable="0" parent="80YeI6Sgnyl6P5MWpeau-27">
          <mxGeometry x="-0.1167" y="-5" relative="1" as="geometry">
            <mxPoint as="offset" />
          </mxGeometry>
        </mxCell>
        <mxCell id="80YeI6Sgnyl6P5MWpeau-91" style="edgeStyle=none;curved=1;rounded=0;orthogonalLoop=1;jettySize=auto;html=1;exitX=0.5;exitY=0;exitDx=0;exitDy=0;fontSize=12;startSize=8;endSize=8;" edge="1" parent="WIyWlLk6GJQsqaUBKTNV-1" source="80YeI6Sgnyl6P5MWpeau-25">
          <mxGeometry relative="1" as="geometry">
            <mxPoint x="840" y="240" as="targetPoint" />
          </mxGeometry>
        </mxCell>
        <mxCell id="80YeI6Sgnyl6P5MWpeau-25" value="if(n%i ==0)" style="rhombus;whiteSpace=wrap;html=1;" vertex="1" parent="WIyWlLk6GJQsqaUBKTNV-1">
          <mxGeometry x="1000" y="265" width="110" height="100" as="geometry" />
        </mxCell>
        <mxCell id="80YeI6Sgnyl6P5MWpeau-92" style="edgeStyle=none;curved=1;rounded=0;orthogonalLoop=1;jettySize=auto;html=1;exitX=0.25;exitY=0;exitDx=0;exitDy=0;fontSize=12;startSize=8;endSize=8;" edge="1" parent="WIyWlLk6GJQsqaUBKTNV-1" source="80YeI6Sgnyl6P5MWpeau-26">
          <mxGeometry relative="1" as="geometry">
            <mxPoint x="880" y="240" as="targetPoint" />
          </mxGeometry>
        </mxCell>
        <mxCell id="80YeI6Sgnyl6P5MWpeau-26" value="control++;" style="whiteSpace=wrap;html=1;" vertex="1" parent="WIyWlLk6GJQsqaUBKTNV-1">
          <mxGeometry x="990" y="460" width="125" height="70" as="geometry" />
        </mxCell>
        <mxCell id="80YeI6Sgnyl6P5MWpeau-33" style="edgeStyle=none;curved=1;rounded=0;orthogonalLoop=1;jettySize=auto;html=1;fontSize=12;startSize=8;endSize=8;" edge="1" parent="WIyWlLk6GJQsqaUBKTNV-1" source="80YeI6Sgnyl6P5MWpeau-32" target="80YeI6Sgnyl6P5MWpeau-34">
          <mxGeometry relative="1" as="geometry">
            <mxPoint x="1320" y="169.9999999999999" as="targetPoint" />
          </mxGeometry>
        </mxCell>
        <mxCell id="80YeI6Sgnyl6P5MWpeau-32" value="start" style="ellipse;whiteSpace=wrap;html=1;" vertex="1" parent="WIyWlLk6GJQsqaUBKTNV-1">
          <mxGeometry x="1260" y="20" width="120" height="80" as="geometry" />
        </mxCell>
        <mxCell id="80YeI6Sgnyl6P5MWpeau-36" value="" style="edgeStyle=none;curved=1;rounded=0;orthogonalLoop=1;jettySize=auto;html=1;fontSize=12;startSize=8;endSize=8;" edge="1" parent="WIyWlLk6GJQsqaUBKTNV-1" source="80YeI6Sgnyl6P5MWpeau-34" target="80YeI6Sgnyl6P5MWpeau-35">
          <mxGeometry relative="1" as="geometry" />
        </mxCell>
        <mxCell id="80YeI6Sgnyl6P5MWpeau-34" value="int faktorial = 1;&lt;div&gt;n= 6;&lt;/div&gt;" style="rounded=0;whiteSpace=wrap;html=1;" vertex="1" parent="WIyWlLk6GJQsqaUBKTNV-1">
          <mxGeometry x="1260" y="159.9999999999999" width="120" height="60" as="geometry" />
        </mxCell>
        <mxCell id="80YeI6Sgnyl6P5MWpeau-38" value="" style="edgeStyle=none;curved=1;rounded=0;orthogonalLoop=1;jettySize=auto;html=1;fontSize=12;startSize=8;endSize=8;" edge="1" parent="WIyWlLk6GJQsqaUBKTNV-1" source="80YeI6Sgnyl6P5MWpeau-35" target="80YeI6Sgnyl6P5MWpeau-37">
          <mxGeometry relative="1" as="geometry" />
        </mxCell>
        <mxCell id="80YeI6Sgnyl6P5MWpeau-35" value="for(int i = 2; i&amp;lt;=n; i++)" style="shape=hexagon;perimeter=hexagonPerimeter2;whiteSpace=wrap;html=1;fixedSize=1;" vertex="1" parent="WIyWlLk6GJQsqaUBKTNV-1">
          <mxGeometry x="1240" y="280" width="160" height="100" as="geometry" />
        </mxCell>
        <mxCell id="80YeI6Sgnyl6P5MWpeau-40" value="" style="edgeStyle=none;curved=1;rounded=0;orthogonalLoop=1;jettySize=auto;html=1;fontSize=12;startSize=8;endSize=8;" edge="1" parent="WIyWlLk6GJQsqaUBKTNV-1" source="80YeI6Sgnyl6P5MWpeau-37" target="80YeI6Sgnyl6P5MWpeau-39">
          <mxGeometry relative="1" as="geometry" />
        </mxCell>
        <mxCell id="80YeI6Sgnyl6P5MWpeau-37" value="faktorial*=i;" style="rounded=0;whiteSpace=wrap;html=1;" vertex="1" parent="WIyWlLk6GJQsqaUBKTNV-1">
          <mxGeometry x="1260" y="440" width="120" height="60" as="geometry" />
        </mxCell>
        <mxCell id="80YeI6Sgnyl6P5MWpeau-42" value="" style="edgeStyle=none;curved=1;rounded=0;orthogonalLoop=1;jettySize=auto;html=1;fontSize=12;startSize=8;endSize=8;" edge="1" parent="WIyWlLk6GJQsqaUBKTNV-1" source="80YeI6Sgnyl6P5MWpeau-39" target="80YeI6Sgnyl6P5MWpeau-41">
          <mxGeometry relative="1" as="geometry" />
        </mxCell>
        <mxCell id="80YeI6Sgnyl6P5MWpeau-39" value="faktorial" style="shape=document;whiteSpace=wrap;html=1;boundedLbl=1;" vertex="1" parent="WIyWlLk6GJQsqaUBKTNV-1">
          <mxGeometry x="1450" y="430" width="120" height="80" as="geometry" />
        </mxCell>
        <mxCell id="80YeI6Sgnyl6P5MWpeau-41" value="end" style="ellipse;whiteSpace=wrap;html=1;" vertex="1" parent="WIyWlLk6GJQsqaUBKTNV-1">
          <mxGeometry x="1450" y="570" width="120" height="80" as="geometry" />
        </mxCell>
        <mxCell id="80YeI6Sgnyl6P5MWpeau-45" value="" style="edgeStyle=none;curved=1;rounded=0;orthogonalLoop=1;jettySize=auto;html=1;fontSize=12;startSize=8;endSize=8;" edge="1" parent="WIyWlLk6GJQsqaUBKTNV-1" source="80YeI6Sgnyl6P5MWpeau-43" target="80YeI6Sgnyl6P5MWpeau-44">
          <mxGeometry relative="1" as="geometry" />
        </mxCell>
        <mxCell id="80YeI6Sgnyl6P5MWpeau-43" value="start" style="ellipse;whiteSpace=wrap;html=1;" vertex="1" parent="WIyWlLk6GJQsqaUBKTNV-1">
          <mxGeometry x="1720" y="20" width="120" height="80" as="geometry" />
        </mxCell>
        <mxCell id="80YeI6Sgnyl6P5MWpeau-47" value="" style="edgeStyle=none;curved=1;rounded=0;orthogonalLoop=1;jettySize=auto;html=1;fontSize=12;startSize=8;endSize=8;" edge="1" parent="WIyWlLk6GJQsqaUBKTNV-1" source="80YeI6Sgnyl6P5MWpeau-44" target="80YeI6Sgnyl6P5MWpeau-46">
          <mxGeometry relative="1" as="geometry" />
        </mxCell>
        <mxCell id="80YeI6Sgnyl6P5MWpeau-44" value="&lt;div&gt;int n = 122;&lt;/div&gt;&lt;div&gt;int firstNum = n;&lt;/div&gt;&lt;div&gt;int secondNum = 0;&lt;/div&gt;&lt;div&gt;int qaliq = 0;&lt;/div&gt;" style="rounded=0;whiteSpace=wrap;html=1;" vertex="1" parent="WIyWlLk6GJQsqaUBKTNV-1">
          <mxGeometry x="1720" y="160" width="120" height="60" as="geometry" />
        </mxCell>
        <mxCell id="80YeI6Sgnyl6P5MWpeau-49" value="" style="edgeStyle=none;curved=1;rounded=0;orthogonalLoop=1;jettySize=auto;html=1;fontSize=12;startSize=8;endSize=8;" edge="1" parent="WIyWlLk6GJQsqaUBKTNV-1" source="80YeI6Sgnyl6P5MWpeau-46" target="80YeI6Sgnyl6P5MWpeau-48">
          <mxGeometry relative="1" as="geometry" />
        </mxCell>
        <mxCell id="80YeI6Sgnyl6P5MWpeau-100" value="true" style="edgeLabel;html=1;align=center;verticalAlign=middle;resizable=0;points=[];" vertex="1" connectable="0" parent="80YeI6Sgnyl6P5MWpeau-49">
          <mxGeometry x="-0.0838" y="-3" relative="1" as="geometry">
            <mxPoint as="offset" />
          </mxGeometry>
        </mxCell>
        <mxCell id="80YeI6Sgnyl6P5MWpeau-53" value="" style="edgeStyle=none;curved=1;rounded=0;orthogonalLoop=1;jettySize=auto;html=1;fontSize=12;startSize=8;endSize=8;" edge="1" parent="WIyWlLk6GJQsqaUBKTNV-1" source="80YeI6Sgnyl6P5MWpeau-46" target="80YeI6Sgnyl6P5MWpeau-52">
          <mxGeometry relative="1" as="geometry" />
        </mxCell>
        <mxCell id="80YeI6Sgnyl6P5MWpeau-67" value="false" style="edgeLabel;html=1;align=center;verticalAlign=middle;resizable=0;points=[];fontSize=12;" vertex="1" connectable="0" parent="80YeI6Sgnyl6P5MWpeau-53">
          <mxGeometry x="-0.1815" relative="1" as="geometry">
            <mxPoint as="offset" />
          </mxGeometry>
        </mxCell>
        <mxCell id="80YeI6Sgnyl6P5MWpeau-46" value="while(n&amp;gt;0)" style="rhombus;whiteSpace=wrap;html=1;" vertex="1" parent="WIyWlLk6GJQsqaUBKTNV-1">
          <mxGeometry x="1715" y="290" width="130" height="110" as="geometry" />
        </mxCell>
        <mxCell id="80YeI6Sgnyl6P5MWpeau-48" value="&lt;div&gt;&amp;nbsp;qaliq = n % 10;&lt;/div&gt;&lt;div&gt;&amp;nbsp;secondNum = secondNum * 10 + qaliq;&lt;/div&gt;&lt;div&gt;&amp;nbsp;n /= 10;&lt;/div&gt;" style="rounded=0;whiteSpace=wrap;html=1;" vertex="1" parent="WIyWlLk6GJQsqaUBKTNV-1">
          <mxGeometry x="1970" y="310" width="170" height="80" as="geometry" />
        </mxCell>
        <mxCell id="80YeI6Sgnyl6P5MWpeau-51" style="edgeStyle=none;curved=1;rounded=0;orthogonalLoop=1;jettySize=auto;html=1;exitX=0.5;exitY=0;exitDx=0;exitDy=0;fontSize=12;startSize=8;endSize=8;" edge="1" parent="WIyWlLk6GJQsqaUBKTNV-1" source="80YeI6Sgnyl6P5MWpeau-48">
          <mxGeometry relative="1" as="geometry">
            <mxPoint x="1800" y="300" as="targetPoint" />
            <Array as="points">
              <mxPoint x="1910" y="220" />
            </Array>
          </mxGeometry>
        </mxCell>
        <mxCell id="80YeI6Sgnyl6P5MWpeau-57" value="" style="edgeStyle=none;curved=1;rounded=0;orthogonalLoop=1;jettySize=auto;html=1;fontSize=12;startSize=8;endSize=8;" edge="1" parent="WIyWlLk6GJQsqaUBKTNV-1" source="80YeI6Sgnyl6P5MWpeau-52" target="80YeI6Sgnyl6P5MWpeau-56">
          <mxGeometry relative="1" as="geometry" />
        </mxCell>
        <mxCell id="80YeI6Sgnyl6P5MWpeau-62" value="false" style="edgeLabel;html=1;align=center;verticalAlign=middle;resizable=0;points=[];fontSize=12;" vertex="1" connectable="0" parent="80YeI6Sgnyl6P5MWpeau-57">
          <mxGeometry x="-0.284" y="3" relative="1" as="geometry">
            <mxPoint as="offset" />
          </mxGeometry>
        </mxCell>
        <mxCell id="80YeI6Sgnyl6P5MWpeau-58" value="" style="edgeStyle=none;curved=1;rounded=0;orthogonalLoop=1;jettySize=auto;html=1;fontSize=12;startSize=8;endSize=8;" edge="1" parent="WIyWlLk6GJQsqaUBKTNV-1" source="80YeI6Sgnyl6P5MWpeau-52" target="80YeI6Sgnyl6P5MWpeau-55">
          <mxGeometry relative="1" as="geometry" />
        </mxCell>
        <mxCell id="80YeI6Sgnyl6P5MWpeau-59" value="true" style="edgeLabel;html=1;align=center;verticalAlign=middle;resizable=0;points=[];fontSize=12;" vertex="1" connectable="0" parent="80YeI6Sgnyl6P5MWpeau-58">
          <mxGeometry x="-0.1729" y="-3" relative="1" as="geometry">
            <mxPoint as="offset" />
          </mxGeometry>
        </mxCell>
        <mxCell id="80YeI6Sgnyl6P5MWpeau-52" value="if(firstNum === secondNum)" style="rhombus;whiteSpace=wrap;html=1;" vertex="1" parent="WIyWlLk6GJQsqaUBKTNV-1">
          <mxGeometry x="1720" y="470" width="120" height="120" as="geometry" />
        </mxCell>
        <mxCell id="80YeI6Sgnyl6P5MWpeau-64" value="" style="edgeStyle=none;curved=1;rounded=0;orthogonalLoop=1;jettySize=auto;html=1;fontSize=12;startSize=8;endSize=8;" edge="1" parent="WIyWlLk6GJQsqaUBKTNV-1" source="80YeI6Sgnyl6P5MWpeau-55" target="80YeI6Sgnyl6P5MWpeau-63">
          <mxGeometry relative="1" as="geometry" />
        </mxCell>
        <mxCell id="80YeI6Sgnyl6P5MWpeau-55" value="polindromdur" style="shape=document;whiteSpace=wrap;html=1;boundedLbl=1;" vertex="1" parent="WIyWlLk6GJQsqaUBKTNV-1">
          <mxGeometry x="1940" y="490" width="120" height="80" as="geometry" />
        </mxCell>
        <mxCell id="80YeI6Sgnyl6P5MWpeau-65" value="" style="edgeStyle=none;curved=1;rounded=0;orthogonalLoop=1;jettySize=auto;html=1;fontSize=12;startSize=8;endSize=8;" edge="1" parent="WIyWlLk6GJQsqaUBKTNV-1" source="80YeI6Sgnyl6P5MWpeau-56" target="80YeI6Sgnyl6P5MWpeau-63">
          <mxGeometry relative="1" as="geometry" />
        </mxCell>
        <mxCell id="80YeI6Sgnyl6P5MWpeau-56" value="polindrom deyil" style="shape=document;whiteSpace=wrap;html=1;boundedLbl=1;" vertex="1" parent="WIyWlLk6GJQsqaUBKTNV-1">
          <mxGeometry x="1720" y="660" width="120" height="80" as="geometry" />
        </mxCell>
        <mxCell id="80YeI6Sgnyl6P5MWpeau-63" value="end" style="ellipse;whiteSpace=wrap;html=1;" vertex="1" parent="WIyWlLk6GJQsqaUBKTNV-1">
          <mxGeometry x="1940" y="660" width="120" height="80" as="geometry" />
        </mxCell>
        <mxCell id="80YeI6Sgnyl6P5MWpeau-93" value="" style="edgeStyle=none;curved=1;rounded=0;orthogonalLoop=1;jettySize=auto;html=1;fontSize=12;startSize=8;endSize=8;" edge="1" parent="WIyWlLk6GJQsqaUBKTNV-1" source="80YeI6Sgnyl6P5MWpeau-72" target="80YeI6Sgnyl6P5MWpeau-75">
          <mxGeometry relative="1" as="geometry" />
        </mxCell>
        <mxCell id="80YeI6Sgnyl6P5MWpeau-95" value="true" style="edgeLabel;html=1;align=center;verticalAlign=middle;resizable=0;points=[];fontSize=12;" vertex="1" connectable="0" parent="80YeI6Sgnyl6P5MWpeau-93">
          <mxGeometry x="-0.2941" relative="1" as="geometry">
            <mxPoint x="1" as="offset" />
          </mxGeometry>
        </mxCell>
        <mxCell id="80YeI6Sgnyl6P5MWpeau-96" value="" style="edgeStyle=none;curved=1;rounded=0;orthogonalLoop=1;jettySize=auto;html=1;fontSize=12;startSize=8;endSize=8;" edge="1" parent="WIyWlLk6GJQsqaUBKTNV-1" source="80YeI6Sgnyl6P5MWpeau-72" target="80YeI6Sgnyl6P5MWpeau-73">
          <mxGeometry relative="1" as="geometry" />
        </mxCell>
        <mxCell id="80YeI6Sgnyl6P5MWpeau-97" value="false" style="edgeLabel;html=1;align=center;verticalAlign=middle;resizable=0;points=[];fontSize=12;" vertex="1" connectable="0" parent="80YeI6Sgnyl6P5MWpeau-96">
          <mxGeometry x="-0.0451" y="-1" relative="1" as="geometry">
            <mxPoint as="offset" />
          </mxGeometry>
        </mxCell>
        <mxCell id="80YeI6Sgnyl6P5MWpeau-72" value="if (control != 0)" style="rhombus;whiteSpace=wrap;html=1;" vertex="1" parent="WIyWlLk6GJQsqaUBKTNV-1">
          <mxGeometry x="775" y="440" width="130" height="120" as="geometry" />
        </mxCell>
        <mxCell id="80YeI6Sgnyl6P5MWpeau-99" value="" style="edgeStyle=none;curved=1;rounded=0;orthogonalLoop=1;jettySize=auto;html=1;fontSize=12;startSize=8;endSize=8;" edge="1" parent="WIyWlLk6GJQsqaUBKTNV-1" source="80YeI6Sgnyl6P5MWpeau-73" target="80YeI6Sgnyl6P5MWpeau-80">
          <mxGeometry relative="1" as="geometry" />
        </mxCell>
        <mxCell id="80YeI6Sgnyl6P5MWpeau-73" value="SADE DEYIL" style="shape=document;whiteSpace=wrap;html=1;boundedLbl=1;" vertex="1" parent="WIyWlLk6GJQsqaUBKTNV-1">
          <mxGeometry x="760" y="620" width="160" height="100" as="geometry" />
        </mxCell>
        <mxCell id="80YeI6Sgnyl6P5MWpeau-98" value="" style="edgeStyle=none;curved=1;rounded=0;orthogonalLoop=1;jettySize=auto;html=1;fontSize=12;startSize=8;endSize=8;" edge="1" parent="WIyWlLk6GJQsqaUBKTNV-1" source="80YeI6Sgnyl6P5MWpeau-75" target="80YeI6Sgnyl6P5MWpeau-80">
          <mxGeometry relative="1" as="geometry" />
        </mxCell>
        <mxCell id="80YeI6Sgnyl6P5MWpeau-75" value="SADEDIR" style="shape=document;whiteSpace=wrap;html=1;boundedLbl=1;" vertex="1" parent="WIyWlLk6GJQsqaUBKTNV-1">
          <mxGeometry x="590" y="460" width="120" height="80" as="geometry" />
        </mxCell>
        <mxCell id="80YeI6Sgnyl6P5MWpeau-80" value="end" style="ellipse;whiteSpace=wrap;html=1;" vertex="1" parent="WIyWlLk6GJQsqaUBKTNV-1">
          <mxGeometry x="590" y="630" width="120" height="80" as="geometry" />
        </mxCell>
      </root>
    </mxGraphModel>
  </diagram>
</mxfile>
